# xmcd
# 
# Track frame offsets:
#     150
#     15846
#     30693
#     50379
#     68182
#     83076
#     96963
#     114243
#     128174
#     146202
#     163847
# 
# Disc length: 2439
# 
# Revision: 0
# Processed by: cddbd v1.5.2PL0 Copyright (c) Steve Scherf et al.
# Submitted via: fre:ac v1.0.31
# 
DISCID=8b09850b
DTITLE=Backstreet Boys - This Is Us
DYEAR=2009
DGENRE=Pop
TTITLE0=Straight Through My Heart
TTITLE1=Bigger
TTITLE2=Bye Bye Love
TTITLE3=All Of Your Life (You Need Love)
TTITLE4=If I Knew Then
TTITLE5=This Is Us
TTITLE6=PDA
TTITLE7=Masquerade
TTITLE8=She's A Dream
TTITLE9=Shattered
TTITLE10=Undone
EXTD=
EXTT0=
EXTT1=
EXTT2=
EXTT3=
EXTT4=
EXTT5=
EXTT6=
EXTT7=
EXTT8=
EXTT9=
EXTT10=
PLAYORDER=
